#Comment line ignore any data following # character 
#Hierarchical Translation and Rotation (.htr) file 
[Header]	
#Header keywords are followed by a single value 
FileType HTR		#Single word string
DataType HTRS		#Translation followed by rotation and scale data
FileVersion 1		#integer
NumSegments 84		#integer
NumFrames 2		#integer
DataFrameRate 30		#integer, data frame rate in this file
EulerRotationOrder ZYX
CalibrationUnits mm
RotationUnits Degrees
GlobalAxisofGravity Y
BoneLengthAxis Y
ScaleFactor 1.00
[SegmentNames&Hierarchy]
#CHILD	PARENT
MASTER GLOBAL
root MASTER
chest root
L_mid_tent01 root
R_mid_tent01 root
spine01 root
Bip01_Neck chest
L_humerus chest
R_humerus chest
weapon_bone chest
Bip01_Head Bip01_Neck
eye_left_bone Bip01_Head
eye_right_bone Bip01_Head
L_forearm L_humerus
L_front_hand L_forearm
L_weapon_bone L_forearm
L_front_hand01_01 L_front_hand
L_front_hand02_01 L_front_hand
L_front_hand03_01 L_front_hand
L_front_hand01_02 L_front_hand01_01
L_front_hand02_02 L_front_hand02_01
L_front_hand03_02 L_front_hand03_01
R_forearm R_humerus
R_front_hand R_forearm
R_weapon_bone R_forearm
R_front_hand01_01 R_front_hand
R_front_hand02_01 R_front_hand
R_front_hand03_01 R_front_hand
R_front_hand01_02 R_front_hand01_01
R_front_hand02_02 R_front_hand02_01
R_front_hand03_02 R_front_hand03_01
null_rope01_connect L_mid_tent01
Rope1_Seg01 null_rope01_connect
Rope1_Seg02 Rope1_Seg01
Rope1_Seg03 Rope1_Seg02
Rope1_Seg04 Rope1_Seg03
Rope1_Seg05 Rope1_Seg04
Rope1_Seg06 Rope1_Seg05
Rope1_Seg07 Rope1_Seg06
Rope1_Seg09 Rope1_Seg07
L_mid_hand01 Rope1_Seg09
L_mid_hand02 Rope1_Seg09
L_mid_hand03 Rope1_Seg09
null_rope02_connect R_mid_tent01
Rope2_Seg01 null_rope02_connect
Rope2_Seg02 Rope2_Seg01
Rope2_Seg03 Rope2_Seg02
Rope2_Seg04 Rope2_Seg03
Rope2_Seg05 Rope2_Seg04
Rope2_Seg06 Rope2_Seg05
Rope2_Seg07 Rope2_Seg06
Rope2_Seg09 Rope2_Seg07
R_mid_hand01 Rope2_Seg09
R_mid_hand02 Rope2_Seg09
R_mid_hand03 Rope2_Seg09
spine02 spine01
spine03 spine02
pelvis spine03
null_rope03_connect pelvis
null_rope04_connect pelvis
Rope3_Seg01 null_rope03_connect
Rope3_Seg02 Rope3_Seg01
Rope3_Seg03 Rope3_Seg02
Rope3_Seg04 Rope3_Seg03
Rope3_Seg05 Rope3_Seg04
Rope3_Seg06 Rope3_Seg05
Rope3_Seg07 Rope3_Seg06
Rope3_Seg08 Rope3_Seg07
Rope3_Seg09 Rope3_Seg08
R_rear_hand01 Rope3_Seg09
R_rear_hand02 Rope3_Seg09
R_rear_hand03 Rope3_Seg09
Rope4_Seg01 null_rope04_connect
Rope4_Seg02 Rope4_Seg01
Rope4_Seg03 Rope4_Seg02
Rope4_Seg04 Rope4_Seg03
Rope4_Seg05 Rope4_Seg04
Rope4_Seg06 Rope4_Seg05
Rope4_Seg07 Rope4_Seg06
Rope4_Seg08 Rope4_Seg07
Rope4_Seg09 Rope4_Seg08
L_rear_hand01 Rope4_Seg09
L_rear_hand02 Rope4_Seg09
L_rear_hand03 Rope4_Seg09
[BasePosition]
#SegmentName Tx, Ty, Tz, Rx, Ry, Rz, BoneLength
MASTER 0.000000 0.000000 0.000000 -90.000000 0.000000 0.000000 10.000000 
root 0.000000 0.000000 0.000000 0.000000 0.000000 0.000000 10.000000 
chest 0.000000 0.000000 0.000000 0.000000 0.000000 0.000000 10.000000 
L_mid_tent01 0.000000 0.000000 0.000000 0.000000 0.000000 0.000000 10.000000 
R_mid_tent01 0.000000 0.000000 0.000000 0.000000 0.000000 0.000000 10.000000 
spine01 0.000000 0.000000 0.000000 0.000000 0.000000 0.000000 10.000000 
Bip01_Neck 0.000000 0.000000 0.000000 0.000000 0.000000 0.000000 10.000000 
L_humerus 0.000000 0.000000 0.000000 0.000000 0.000000 0.000000 10.000000 
R_humerus 0.000000 0.000000 0.000000 0.000000 0.000000 0.000000 10.000000 
weapon_bone 0.000000 0.000000 0.000000 0.000000 0.000000 0.000000 10.000000 
Bip01_Head 0.000000 0.000000 0.000000 0.000000 0.000000 0.000000 10.000000 
eye_left_bone 0.000000 0.000000 0.000000 0.000000 0.000000 0.000000 10.000000 
eye_right_bone 0.000000 0.000000 0.000000 0.000000 0.000000 0.000000 10.000000 
L_forearm 0.000000 0.000000 0.000000 0.000000 0.000000 0.000000 10.000000 
L_front_hand 0.000000 0.000000 0.000000 0.000000 0.000000 0.000000 10.000000 
L_weapon_bone 0.000000 0.000000 0.000000 0.000000 0.000000 0.000000 10.000000 
L_front_hand01_01 0.000000 0.000000 0.000000 0.000000 0.000000 0.000000 10.000000 
L_front_hand02_01 0.000000 0.000000 0.000000 0.000000 0.000000 0.000000 10.000000 
L_front_hand03_01 0.000000 0.000000 0.000000 0.000000 0.000000 0.000000 10.000000 
L_front_hand01_02 0.000000 0.000000 0.000000 0.000000 0.000000 0.000000 10.000000 
L_front_hand02_02 0.000000 0.000000 0.000000 0.000000 0.000000 0.000000 10.000000 
L_front_hand03_02 0.000000 0.000000 0.000000 0.000000 0.000000 0.000000 10.000000 
R_forearm 0.000000 0.000000 0.000000 0.000000 0.000000 0.000000 10.000000 
R_front_hand 0.000000 0.000000 0.000000 0.000000 0.000000 0.000000 10.000000 
R_weapon_bone 0.000000 0.000000 0.000000 0.000000 0.000000 0.000000 10.000000 
R_front_hand01_01 0.000000 0.000000 0.000000 0.000000 0.000000 0.000000 10.000000 
R_front_hand02_01 0.000000 0.000000 0.000000 0.000000 0.000000 0.000000 10.000000 
R_front_hand03_01 0.000000 0.000000 0.000000 0.000000 0.000000 0.000000 10.000000 
R_front_hand01_02 0.000000 0.000000 0.000000 0.000000 0.000000 0.000000 10.000000 
R_front_hand02_02 0.000000 0.000000 0.000000 0.000000 0.000000 0.000000 10.000000 
R_front_hand03_02 0.000000 0.000000 0.000000 0.000000 0.000000 0.000000 10.000000 
null_rope01_connect 0.000000 0.000000 0.000000 0.000000 0.000000 0.000000 10.000000 
Rope1_Seg01 0.000000 0.000000 0.000000 0.000000 0.000000 0.000000 10.000000 
Rope1_Seg02 0.000000 0.000000 0.000000 0.000000 0.000000 0.000000 10.000000 
Rope1_Seg03 0.000000 0.000000 0.000000 0.000000 0.000000 0.000000 10.000000 
Rope1_Seg04 0.000000 0.000000 0.000000 0.000000 0.000000 0.000000 10.000000 
Rope1_Seg05 0.000000 0.000000 0.000000 0.000000 0.000000 0.000000 10.000000 
Rope1_Seg06 0.000000 0.000000 0.000000 0.000000 0.000000 0.000000 10.000000 
Rope1_Seg07 0.000000 0.000000 0.000000 0.000000 0.000000 0.000000 10.000000 
Rope1_Seg09 0.000000 0.000000 0.000000 0.000000 0.000000 0.000000 10.000000 
L_mid_hand01 0.000000 0.000000 0.000000 0.000000 0.000000 0.000000 10.000000 
L_mid_hand02 0.000000 0.000000 0.000000 0.000000 0.000000 0.000000 10.000000 
L_mid_hand03 0.000000 0.000000 0.000000 0.000000 0.000000 0.000000 10.000000 
null_rope02_connect 0.000000 0.000000 0.000000 0.000000 0.000000 0.000000 10.000000 
Rope2_Seg01 0.000000 0.000000 0.000000 0.000000 0.000000 0.000000 10.000000 
Rope2_Seg02 0.000000 0.000000 0.000000 0.000000 0.000000 0.000000 10.000000 
Rope2_Seg03 0.000000 0.000000 0.000000 0.000000 0.000000 0.000000 10.000000 
Rope2_Seg04 0.000000 0.000000 0.000000 0.000000 0.000000 0.000000 10.000000 
Rope2_Seg05 0.000000 0.000000 0.000000 0.000000 0.000000 0.000000 10.000000 
Rope2_Seg06 0.000000 0.000000 0.000000 0.000000 0.000000 0.000000 10.000000 
Rope2_Seg07 0.000000 0.000000 0.000000 0.000000 0.000000 0.000000 10.000000 
Rope2_Seg09 0.000000 0.000000 0.000000 0.000000 0.000000 0.000000 10.000000 
R_mid_hand01 0.000000 0.000000 0.000000 0.000000 0.000000 0.000000 10.000000 
R_mid_hand02 0.000000 0.000000 0.000000 0.000000 0.000000 0.000000 10.000000 
R_mid_hand03 0.000000 0.000000 0.000000 0.000000 0.000000 0.000000 10.000000 
spine02 0.000000 0.000000 0.000000 0.000000 0.000000 0.000000 10.000000 
spine03 0.000000 0.000000 0.000000 0.000000 0.000000 0.000000 10.000000 
pelvis 0.000000 0.000000 0.000000 0.000000 0.000000 0.000000 10.000000 
null_rope03_connect 0.000000 0.000000 0.000000 0.000000 0.000000 0.000000 10.000000 
null_rope04_connect 0.000000 0.000000 0.000000 0.000000 0.000000 0.000000 10.000000 
Rope3_Seg01 0.000000 0.000000 0.000000 0.000000 0.000000 0.000000 10.000000 
Rope3_Seg02 0.000000 0.000000 0.000000 0.000000 0.000000 0.000000 10.000000 
Rope3_Seg03 0.000000 0.000000 0.000000 0.000000 0.000000 0.000000 10.000000 
Rope3_Seg04 0.000000 0.000000 0.000000 0.000000 0.000000 0.000000 10.000000 
Rope3_Seg05 0.000000 0.000000 0.000000 0.000000 0.000000 0.000000 10.000000 
Rope3_Seg06 0.000000 0.000000 0.000000 0.000000 0.000000 0.000000 10.000000 
Rope3_Seg07 0.000000 0.000000 0.000000 0.000000 0.000000 0.000000 10.000000 
Rope3_Seg08 0.000000 0.000000 0.000000 0.000000 0.000000 0.000000 10.000000 
Rope3_Seg09 0.000000 0.000000 0.000000 0.000000 0.000000 0.000000 10.000000 
R_rear_hand01 0.000000 0.000000 0.000000 0.000000 0.000000 0.000000 10.000000 
R_rear_hand02 0.000000 0.000000 0.000000 0.000000 0.000000 0.000000 10.000000 
R_rear_hand03 0.000000 0.000000 0.000000 0.000000 0.000000 0.000000 10.000000 
Rope4_Seg01 0.000000 0.000000 0.000000 0.000000 0.000000 0.000000 10.000000 
Rope4_Seg02 0.000000 0.000000 0.000000 0.000000 0.000000 0.000000 10.000000 
Rope4_Seg03 0.000000 0.000000 0.000000 0.000000 0.000000 0.000000 10.000000 
Rope4_Seg04 0.000000 0.000000 0.000000 0.000000 0.000000 0.000000 10.000000 
Rope4_Seg05 0.000000 0.000000 0.000000 0.000000 0.000000 0.000000 10.000000 
Rope4_Seg06 0.000000 0.000000 0.000000 0.000000 0.000000 0.000000 10.000000 
Rope4_Seg07 0.000000 0.000000 0.000000 0.000000 0.000000 0.000000 10.000000 
Rope4_Seg08 0.000000 0.000000 0.000000 0.000000 0.000000 0.000000 10.000000 
Rope4_Seg09 0.000000 0.000000 0.000000 0.000000 0.000000 0.000000 10.000000 
L_rear_hand01 0.000000 0.000000 0.000000 0.000000 0.000000 0.000000 10.000000 
L_rear_hand02 0.000000 0.000000 0.000000 0.000000 0.000000 0.000000 10.000000 
L_rear_hand03 0.000000 0.000000 0.000000 0.000000 0.000000 0.000000 10.000000 
#Beginning of Data. Separated by tabs
#Fr	Tx	Ty	Tz	Rx	Ry	Rz	SF
[MASTER]
25 -2865.204834 -0.000433 0.000000 0.001660 0.001660 0.001660 2865.204834
26 -2998.146484 -0.000453 0.000000 0.001660 0.001660 0.001660 2998.146484
[root]
25 -16.502380 -62.822109 1496.958740 -91.704651 -27.679037 -107.246086 1498.367310
26 -16.502380 -62.822109 1500.000000 -89.202385 -27.676716 -107.651016 1501.405640
[chest]
25 -84.512650 -34.090519 0.000000 -18.427906 2.930172 -178.392044 91.129311
26 -84.512650 -34.090519 0.000000 -5.125356 2.418449 179.979218 91.129311
[L_mid_tent01]
25 27.299423 22.177580 -249.917603 3.862628 36.229202 81.347610 252.380478
26 27.299347 22.177504 -249.917603 3.862628 36.229202 81.347610 252.380463
[R_mid_tent01]
25 23.228794 24.509907 226.238495 160.432037 -47.061241 87.899765 228.744751
26 23.228794 24.509907 226.238495 160.432037 -47.061249 87.899780 228.744751
[spine01]
25 -0.361383 -0.195265 0.000000 0.829142 1.400018 15.725574 0.410763
26 -0.361383 -0.195265 0.000000 0.829142 1.400018 15.725576 0.410763
[Bip01_Neck]
25 165.484543 71.581718 0.000119 175.896118 1.177290 24.871183 180.302734
26 165.484543 71.581718 0.000119 175.896118 1.177290 24.871187 180.302734
[L_humerus]
25 -13.983130 -135.272980 -120.471481 170.940796 81.564224 -99.189163 181.680161
26 -13.983130 -135.272980 -120.471481 170.940842 81.564316 -99.189255 181.680161
[R_humerus]
25 -13.983309 -135.273102 125.287651 -159.666046 -68.957870 -101.166077 184.909012
26 -13.983309 -135.273102 125.287651 -159.666061 -68.957893 -101.166092 184.909012
[weapon_bone]
25 235.964890 -300.705902 0.000000 0.000000 -89.951546 -128.212341 382.234833
26 235.964890 -300.705902 0.000000 0.000000 -89.951546 -128.212341 382.234833
[Bip01_Head]
25 261.355865 108.959641 -2.864081 2.248029 5.843377 -62.458344 283.173615
26 261.355865 108.959656 -2.864075 2.248029 5.843378 -62.458359 283.173615
[eye_left_bone]
25 -24.626970 125.451866 -64.772606 0.000000 -90.000000 -99.840431 143.318359
26 -24.626970 125.451866 -64.772606 0.000000 -90.000000 -99.840431 143.318359
[eye_right_bone]
25 -24.626970 125.451866 64.327362 0.000000 -89.960434 80.159386 143.117676
26 -24.626970 125.451866 64.327362 0.000000 -90.000000 80.159393 143.117676
[L_forearm]
25 322.776093 0.000000 -0.000119 0.000471 0.002300 -66.859398 322.776093
26 322.776093 0.000000 -0.000119 0.000471 0.002300 -66.859406 322.776093
[L_front_hand]
25 241.149185 -0.042021 -3.300071 -178.667953 -1.835447 -27.422350 241.171753
26 241.149185 -0.042021 -3.300071 -178.667953 -1.835448 -27.422352 241.171753
[L_weapon_bone]
25 156.183838 0.000000 0.000000 0.001660 0.001660 0.001660 156.183838
26 156.183838 0.000000 0.000000 0.001660 0.001660 0.001660 156.183838
[L_front_hand01_01]
25 86.095154 20.947098 -0.655860 -0.121285 -0.584991 49.583012 88.609184
26 86.095154 20.947098 -0.655860 -0.160619 -0.576151 53.404995 88.609184
[L_front_hand02_01]
25 86.935165 -11.437475 24.513514 128.359512 -43.192081 -28.795156 91.046425
26 86.935165 -11.437475 24.513514 130.772217 -46.139130 -32.220337 91.046425
[L_front_hand03_01]
25 86.637497 -14.123976 -20.424902 -129.343369 41.563450 -31.211437 90.126129
26 86.637497 -14.123976 -20.424902 -131.664459 44.472511 -34.610035 90.126129
[L_front_hand01_02]
25 71.020905 -0.000179 0.000030 0.000213 0.002338 -79.602097 71.020905
26 71.020905 -0.000179 0.000030 0.000130 0.002344 -83.647156 71.020905
[L_front_hand02_02]
25 71.020927 -0.000119 0.000060 0.000213 0.002338 -79.602097 71.020927
26 71.020927 -0.000119 0.000060 0.000130 0.002344 -83.647156 71.020927
[L_front_hand03_02]
25 71.020905 -0.000060 0.000060 0.000213 0.002338 -79.602097 71.020905
26 71.020905 -0.000060 0.000060 0.000130 0.002344 -83.647156 71.020905
[R_forearm]
25 322.776428 -0.000060 0.000030 0.199694 -0.075621 -69.903069 322.776428
26 322.776428 -0.000060 0.000030 0.199694 -0.075621 -69.903084 322.776428
[R_front_hand]
25 238.847015 -0.006795 2.210259 -1.531694 0.790216 -51.443054 238.857239
26 238.847015 -0.006795 2.210259 -1.531694 0.790216 -51.443054 238.857239
[R_weapon_bone]
25 155.664093 0.002503 -0.000030 0.003487 0.001180 -90.988930 155.664078
26 155.664093 0.002503 -0.000030 0.003487 0.001180 -90.988930 155.664078
[R_front_hand01_01]
25 87.624611 14.231146 22.918642 -128.451859 -43.306927 29.030180 91.683487
26 87.624611 14.231146 22.918642 -130.870132 -46.251255 32.463497 91.683487
[R_front_hand02_01]
25 89.356956 14.367283 -19.491137 129.628052 41.909271 31.855764 92.579636
26 89.356956 14.367283 -19.491137 131.986176 44.802925 35.292278 92.579636
[R_front_hand03_01]
25 87.286232 -22.307278 -0.143439 -0.038288 -0.452514 -49.970829 90.091743
26 87.286232 -22.307278 -0.143439 -0.007706 -0.451238 -53.793499 90.091743
[R_front_hand01_02]
25 71.020905 0.000060 0.000119 0.002338 0.000213 79.599968 71.020905
26 71.020905 0.000060 0.000119 0.002344 0.000130 83.651611 71.020905
[R_front_hand02_02]
25 71.020844 -0.000030 -0.000119 0.002338 0.000213 79.599968 71.020836
26 71.020844 -0.000030 -0.000119 0.002344 0.000130 83.651611 71.020836
[R_front_hand03_02]
25 71.020905 0.000000 0.000030 0.002338 0.000213 79.599968 71.020905
26 71.020905 0.000000 0.000030 0.002344 0.000130 83.651611 71.020905
[null_rope01_connect]
25 328.732483 0.000000 -0.000238 -125.929977 -38.985252 159.079529 328.732483
26 328.732483 0.000000 -0.000238 -124.178619 -40.820202 157.386871 328.732483
[Rope1_Seg01]
25 0.000000 0.000000 0.000000 101.464470 54.205551 121.204605 0.000000
26 0.000000 0.000000 0.000000 95.148521 48.616016 113.158798 0.000000
[Rope1_Seg02]
25 139.999863 -0.000179 0.000000 -2.250600 -17.473948 10.927482 139.999863
26 139.999863 -0.000179 0.000000 -0.704725 -8.229830 2.923670 139.999863
[Rope1_Seg03]
25 139.999924 0.000060 -0.000060 -3.366594 -13.973431 7.347445 139.999924
26 139.999924 0.000060 -0.000060 -2.472427 -12.584146 3.474824 139.999924
[Rope1_Seg04]
25 139.999924 -0.000060 -0.000119 -6.004392 -15.961423 11.230023 139.999924
26 139.999924 -0.000060 -0.000119 -8.477934 -20.457071 4.840146 139.999924
[Rope1_Seg05]
25 139.999832 0.000119 -0.000060 -6.000056 -10.435637 6.854134 139.999832
26 139.999832 0.000119 -0.000060 -5.926495 -14.572052 11.479657 139.999832
[Rope1_Seg06]
25 139.999954 0.000119 -0.000060 -4.931171 -5.277380 2.558327 139.999954
26 139.999954 0.000119 -0.000060 -2.991813 -5.756781 4.239726 139.999954
[Rope1_Seg07]
25 139.999985 0.000060 0.000000 -4.198369 -3.356747 1.288277 139.999985
26 139.999985 0.000060 0.000000 -3.128449 -3.405034 1.742986 139.999985
[Rope1_Seg09]
25 121.602913 0.000119 -0.000089 -89.793175 -1.359789 0.847147 121.602913
26 121.602913 0.000119 -0.000089 -89.793175 -1.359789 0.847147 121.602913
[L_mid_hand01]
25 103.859421 1.038730 8.195221 105.620987 -22.988335 -6.761933 104.187431
26 103.859421 1.038730 8.195221 105.621002 -22.988338 -6.761934 104.187431
[L_mid_hand02]
25 105.572853 -4.139662 -10.864139 -139.491974 20.327143 -21.528740 106.211075
26 105.572853 -4.139662 -10.864139 -139.491974 20.327143 -21.528740 106.211075
[L_mid_hand03]
25 104.641464 17.579376 -3.913581 -17.354424 7.254999 25.905664 106.179977
26 104.641464 17.579376 -3.913581 -17.354425 7.255000 25.905668 106.179977
[null_rope02_connect]
25 328.732849 0.000179 -0.000119 -136.065399 54.792782 1.838439 328.732849
26 328.732849 0.000179 -0.000119 -136.643875 52.737003 0.294910 328.732849
[Rope2_Seg01]
25 -0.000040 0.000134 0.000153 -88.939888 60.700603 11.396420 0.000207
26 -0.000038 0.000134 0.000153 -63.105095 45.578011 31.671516 0.000206
[Rope2_Seg02]
25 139.999741 -0.000060 -0.000119 2.956372 -17.417900 0.474656 139.999756
26 139.999741 -0.000060 -0.000119 0.526940 -6.000311 1.033902 139.999756
[Rope2_Seg03]
25 140.000107 0.000030 0.000000 0.406718 -13.985655 2.263951 140.000107
26 140.000107 0.000030 0.000000 0.204405 -6.742233 1.773229 140.000107
[Rope2_Seg04]
25 139.999802 0.000000 -0.000060 -1.744360 -27.484659 -0.605324 139.999802
26 139.999802 0.000000 -0.000060 -0.146000 -15.058124 3.004550 139.999802
[Rope2_Seg05]
25 139.999985 -0.000060 0.000119 -3.283967 -13.017506 -1.137448 139.999985
26 139.999985 -0.000060 0.000119 -2.673416 -23.712812 0.320418 139.999985
[Rope2_Seg06]
25 139.999893 -0.000030 -0.000119 -1.982996 -5.304411 -0.659136 139.999893
26 139.999893 -0.000030 -0.000119 -1.800679 -7.296960 -0.180892 139.999893
[Rope2_Seg07]
25 139.999893 0.000060 -0.000060 -1.404962 -3.091157 -0.494797 139.999893
26 139.999893 0.000060 -0.000060 -1.151126 -3.690250 -0.159197 139.999893
[Rope2_Seg09]
25 121.338966 0.000089 -0.000060 33.793236 -1.359788 -0.847141 121.338966
26 121.338966 0.000089 -0.000060 33.793236 -1.359788 -0.847141 121.338966
[R_mid_hand01]
25 104.680779 11.144459 -10.335981 -44.070736 19.764444 21.986286 105.778534
26 104.680779 11.144459 -10.335981 -44.070736 19.764446 21.986286 105.778534
[R_mid_hand02]
25 104.070427 2.443552 8.231699 74.148849 -24.768806 7.320621 104.424065
26 104.070427 2.443552 8.231699 74.148865 -24.768812 7.320621 104.424065
[R_mid_hand03]
25 106.028137 -11.221827 -5.996406 -166.566208 8.416404 -28.789036 106.788818
26 106.028137 -11.221827 -5.996406 -166.566223 8.416407 -28.789045 106.788818
[spine02]
25 129.756927 0.001550 0.000119 -0.245322 -4.052060 -4.355547 129.756927
26 129.756927 0.001550 0.000119 -0.245322 -4.052061 -4.355548 129.756927
[spine03]
25 78.613884 0.087286 -4.898979 0.369659 4.260734 -4.885720 78.766426
26 78.613892 0.087280 -4.898987 0.369659 4.260734 -4.885720 78.766434
[pelvis]
25 169.435242 0.051022 0.000000 -0.010007 -0.191417 -1.897554 169.435257
26 169.435242 0.051022 0.000000 -0.010007 -0.191417 -1.897554 169.435257
[null_rope03_connect]
25 -1.257226 -2.466202 137.391083 -89.947540 -70.924889 -156.914230 137.418976
26 -1.257226 -2.466202 137.391083 -82.921257 -71.548660 -163.630859 137.418976
[null_rope04_connect]
25 -1.259640 -2.480268 -137.844437 -89.947540 -70.924889 -156.914230 137.872513
26 -1.259640 -2.480268 -137.844437 -82.921257 -71.548660 -163.630859 137.872513
[Rope3_Seg01]
25 0.000292 0.000000 0.000006 -135.786484 -37.291534 -74.276688 0.000292
26 0.000305 0.000000 0.000000 -131.277283 -33.997234 -81.483276 0.000305
[Rope3_Seg02]
25 139.999924 -0.000119 0.000060 -9.512709 -4.883371 -37.814255 139.999924
26 139.999924 -0.000119 0.000060 -17.501930 2.708846 -48.745037 139.999924
[Rope3_Seg03]
25 139.999924 -0.000119 0.000119 -79.622566 7.115119 -52.412148 139.999924
26 139.999924 -0.000119 0.000119 -65.456467 18.152464 -49.512939 139.999924
[Rope3_Seg04]
25 139.999924 0.000119 0.000000 -42.965981 31.003319 -17.042498 139.999924
26 139.999924 0.000119 0.000000 -34.530899 28.695633 -18.494574 139.999924
[Rope3_Seg05]
25 139.999924 -0.000238 0.000060 -9.818924 22.002377 2.356699 139.999924
26 139.999924 -0.000238 0.000060 -10.316117 21.053225 -1.445544 139.999924
[Rope3_Seg06]
25 139.999893 -0.000119 -0.000060 -1.101640 6.544054 2.455501 139.999893
26 139.999893 -0.000119 -0.000060 -1.493710 6.851974 1.175779 139.999893
[Rope3_Seg07]
25 139.999771 0.000060 -0.000119 -0.167847 3.719015 1.485687 139.999771
26 139.999771 0.000060 -0.000119 -0.376741 3.971609 0.790292 139.999771
[Rope3_Seg08]
25 139.999985 -0.000060 0.000000 0.210075 2.097257 0.846421 139.999985
26 139.999985 -0.000060 0.000000 0.104783 2.256634 0.463766 139.999985
[Rope3_Seg09]
25 90.185997 -0.000179 -0.000060 89.793228 -1.359877 -0.847183 90.185997
26 90.185997 -0.000179 -0.000060 89.793228 -1.359877 -0.847183 90.185997
[R_rear_hand01]
25 103.366196 -6.073594 -10.757982 -160.090088 14.865479 -24.717995 104.101845
26 103.366196 -6.073594 -10.757982 -160.090088 14.865480 -24.717997 104.101845
[R_rear_hand02]
25 100.509819 12.039542 -7.992327 -35.711582 16.148796 24.170401 101.543350
26 100.509819 12.039542 -7.992327 -35.711582 16.148800 24.170403 101.543350
[R_rear_hand03]
25 101.539970 5.215704 5.435467 83.699936 -25.497597 6.583542 101.819031
26 101.539970 5.215704 5.435467 83.699944 -25.497602 6.583543 101.819031
[Rope4_Seg01]
25 -0.000010 -0.000003 -0.000153 55.150028 -20.593941 -127.501694 0.000153
26 -0.000010 0.000000 -0.000153 49.913239 -11.868045 -121.509109 0.000153
[Rope4_Seg02]
25 139.999985 0.000060 0.000119 38.535866 -54.269398 27.827534 139.999985
26 139.999985 0.000060 0.000119 51.904633 -68.785309 18.470503 139.999985
[Rope4_Seg03]
25 139.999924 0.000000 -0.000238 30.376726 -12.433737 44.138626 139.999924
26 139.999924 0.000000 -0.000238 35.479374 -10.039602 39.110340 139.999924
[Rope4_Seg04]
25 139.999985 0.000000 0.000119 6.861868 5.150453 21.206858 139.999985
26 139.999985 0.000000 0.000119 10.404774 3.956682 23.795286 139.999985
[Rope4_Seg05]
25 139.999802 -0.000060 -0.000119 2.961323 8.724451 26.929436 139.999802
26 139.999802 -0.000060 -0.000119 5.833913 9.212298 32.391037 139.999802
[Rope4_Seg06]
25 139.999924 0.000000 0.000060 -1.422890 4.339815 12.007469 139.999924
26 139.999924 0.000000 0.000060 -0.900469 4.669433 12.134994 139.999924
[Rope4_Seg07]
25 139.999802 0.000000 0.000000 -1.438233 2.092477 6.330470 139.999802
26 139.999802 0.000000 0.000000 -1.102218 2.240000 6.117152 139.999802
[Rope4_Seg08]
25 139.999924 0.000000 0.000119 -2.568733 1.060583 3.520597 139.999924
26 139.999924 0.000000 0.000119 -2.340287 1.143663 3.332818 139.999924
[Rope4_Seg09]
25 90.185791 0.000060 0.000060 -135.617828 2.228885 0.850567 90.185791
26 90.185791 0.000060 0.000060 -135.617828 2.228885 0.850567 90.185791
[L_rear_hand01]
25 101.696655 -8.392275 -7.654577 -36.242058 -14.765300 157.809067 102.329041
26 101.696655 -8.392275 -7.654577 -36.242065 -14.765306 157.809082 102.329041
[L_rear_hand02]
25 102.726799 -1.568258 5.773216 83.814362 23.151863 173.698151 102.900848
26 102.726799 -1.568258 5.773216 83.814369 23.151869 173.698151 102.900848
[L_rear_hand03]
25 104.552910 9.721220 -10.420293 -159.518845 -14.052428 -157.569275 105.519653
26 104.552910 9.721220 -10.420293 -159.518845 -14.052429 -157.569290 105.519653
